<?xml version="1.0" encoding="UTF-8"?>
<!DOCTYPE svg PUBLIC "-//W3C//DTD SVG 1.1//EN" "http://www.w3.org/Graphics/SVG/1.1/DTD/svg11.dtd">
<!-- Creator: CorelDRAW -->
<svg xmlns="http://www.w3.org/2000/svg" xml:space="preserve" width="6.82666in" height="6.82666in" style="shape-rendering:geometricPrecision; text-rendering:geometricPrecision; image-rendering:optimizeQuality; fill-rule:evenodd; clip-rule:evenodd"
viewBox="0 0 6.82666 6.82666"
 xmlns:xlink="http://www.w3.org/1999/xlink">
 <defs>
  <style type="text/css">
   <![CDATA[
    .fil0 {fill:none}
    .fil2 {fill:#FFFFFE}
    .fil1 {fill:#FFFFFE;fill-rule:nonzero}
   ]]>
  </style>
 </defs>
 <rect class="fil0" width="6.82666" height="6.82666"/>
 <g id="Layer_x0020_1">
  <metadata id="CorelCorpID_0Corel-Layer"/>
  <g id="_304766128">
   <path id="_304768624" class="fil1" d="M3.9085 0.977083c0.230854,0 0.43987,0.0935866 0.591165,0.244882 0.151295,0.151295 0.244882,0.360311 0.244882,0.591165 0,0.23085 -0.0935866,0.43987 -0.244882,0.591165 -0.151295,0.151295 -0.360315,0.244882 -0.591165,0.244882 -0.23085,0 -0.43987,-0.0935866 -0.591165,-0.244882 -0.151295,-0.151295 -0.244882,-0.360315 -0.244882,-0.591165 0,-0.230854 0.0935866,-0.43987 0.244882,-0.591165 0.151295,-0.151295 0.360311,-0.244882 0.591165,-0.244882zm0.331673 0.504374c-0.084874,-0.084874 -0.202142,-0.137374 -0.331673,-0.137374 -0.129531,0 -0.246799,0.0525 -0.331673,0.137374 -0.084874,0.084874 -0.137374,0.202142 -0.137374,0.331673 0,0.129531 0.0525,0.246799 0.137374,0.331673 0.084874,0.084874 0.202142,0.137374 0.331673,0.137374 0.129531,0 0.246799,-0.0525 0.331673,-0.137374 0.084874,-0.084874 0.137374,-0.202142 0.137374,-0.331673 0,-0.129531 -0.0525,-0.246799 -0.137374,-0.331673z"/>
   <path id="_304768552" class="fil1" d="M4.4337 3.17272c0.350642,0 0.66811,0.142138 0.897906,0.371941 0.229803,0.229795 0.371941,0.547264 0.371941,0.897906 0,0.350642 -0.142138,0.66811 -0.371941,0.897906 -0.229795,0.229803 -0.547264,0.371941 -0.897906,0.371941 -0.350642,0 -0.668102,-0.142138 -0.897906,-0.371941 -0.229795,-0.229795 -0.371937,-0.547264 -0.371937,-0.897906 0,-0.350642 0.142142,-0.66811 0.371937,-0.897906 0.229803,-0.229803 0.547264,-0.371941 0.897906,-0.371941zm0.57915 0.690697c-0.148209,-0.148213 -0.352972,-0.239886 -0.57915,-0.239886 -0.226177,0 -0.430937,0.0916732 -0.57915,0.239886 -0.148209,0.148205 -0.239882,0.352972 -0.239882,0.57915 0,0.226177 0.0916732,0.430945 0.239882,0.57915 0.148213,0.148213 0.352972,0.239886 0.57915,0.239886 0.226177,0 0.430941,-0.0916732 0.57915,-0.239886 0.148213,-0.148209 0.239886,-0.352972 0.239886,-0.57915 0,-0.226177 -0.0916732,-0.430941 -0.239886,-0.57915z"/>
   <path id="_304768240" class="fil1" d="M4.4337 3.89457c0.151311,0 0.288311,0.0613425 0.38748,0.160512 0.0991732,0.0991732 0.160516,0.236177 0.160516,0.387484 0,0.151307 -0.0613425,0.288315 -0.160516,0.387476 -0.0991693,0.0991732 -0.236169,0.160516 -0.38748,0.160516 -0.151307,0 -0.288311,-0.0613386 -0.38748,-0.160512 -0.0991654,-0.0991693 -0.160512,-0.236169 -0.160512,-0.38748 0,-0.151311 0.0613425,-0.288311 0.160512,-0.387484 0.0991654,-0.0991693 0.236173,-0.160512 0.38748,-0.160512z"/>
   <g>
    <polygon id="_304768408" class="fil1" points="4.1289,5.60576 4.1289,5.97353 4.7385,5.97353 4.7385,5.60576 "/>
    <polygon id="_304768336" class="fil1" points="4.7385,3.27939 4.7385,2.91162 4.1289,2.91162 4.1289,3.27939 "/>
   </g>
   <g>
    <polygon id="_304768288" class="fil1" points="5.59688,4.74738 5.96466,4.74738 5.96466,4.13777 5.59688,4.13777 "/>
    <polygon id="_304768840" class="fil1" points="3.27052,4.13777 2.90274,4.13777 2.90274,4.74738 3.27052,4.74738 "/>
   </g>
   <g>
    <polygon id="_304768744" class="fil1" points="5.04067,5.48059 5.30072,5.74065 5.73178,5.3096 5.47172,5.04954 "/>
    <polygon id="_304768768" class="fil1" points="3.82674,3.40456 3.56668,3.1445 3.13562,3.57555 3.39568,3.83561 "/>
   </g>
   <g>
    <polygon id="_304768120" class="fil1" points="3.82674,5.48059 3.56668,5.74065 3.13562,5.3096 3.39568,5.04954 "/>
    <polygon id="_304767976" class="fil1" points="5.04067,3.40456 5.30072,3.1445 5.73178,3.57555 5.47172,3.83561 "/>
   </g>
   <path id="_304768024" class="fil1" d="M2.03534 2.06157c0.27561,0 0.525146,0.111724 0.70578,0.292354 0.180626,0.180626 0.292354,0.430165 0.292354,0.70578 0,0.27561 -0.111724,0.525146 -0.292358,0.705776 -0.18063,0.180634 -0.430165,0.292358 -0.705776,0.292358 -0.27561,0 -0.525146,-0.111724 -0.705776,-0.292358 -0.180634,-0.18063 -0.292358,-0.430165 -0.292358,-0.705776 0,-0.27561 0.111724,-0.525146 0.292358,-0.705776 0.18063,-0.180634 0.430165,-0.292358 0.705776,-0.292358zm0.554945 0.443189c-0.142016,-0.142012 -0.33822,-0.22985 -0.554945,-0.22985 -0.216724,0 -0.412929,0.0878386 -0.554941,0.229854 -0.142016,0.142012 -0.229854,0.338217 -0.229854,0.554941 0,0.216728 0.0878386,0.412929 0.229854,0.554941 0.142012,0.142016 0.338217,0.229854 0.554941,0.229854 0.216724,0 0.412929,-0.0878386 0.554941,-0.229854 0.142016,-0.142012 0.229854,-0.338213 0.229854,-0.554941 0,-0.216728 -0.0878425,-0.412937 -0.22985,-0.554945z"/>
   <path id="_304767784" class="fil2" d="M2.03534 2.34646c0.189709,0 0.370205,0.0747953 0.504327,0.208913 0.134118,0.134122 0.208913,0.314618 0.208913,0.504327 0,0.189709 -0.0747953,0.370205 -0.208913,0.504327 -0.134122,0.134118 -0.314618,0.208913 -0.504327,0.208913 -0.189709,0 -0.370205,-0.0747953 -0.504327,-0.208913 -0.134118,-0.134122 -0.208913,-0.314618 -0.208913,-0.504327 0,-0.189709 0.0747953,-0.370205 0.208913,-0.504327 0.134122,-0.134118 0.314618,-0.208913 0.504327,-0.208913zm0.163535 0.549705c-0.0435787,-0.0435827 -0.101898,-0.0677244 -0.163535,-0.0677244 -0.0616378,0 -0.119957,0.0241417 -0.163535,0.0677244 -0.0435827,0.0435787 -0.0677244,0.101898 -0.0677244,0.163535 0,0.0616378 0.0241417,0.119957 0.0677244,0.163535 0.0435787,0.0435827 0.101898,0.0677244 0.163535,0.0677244 0.0616378,0 0.119957,-0.0241417 0.163535,-0.0677244 0.0435827,-0.0435787 0.0677244,-0.101898 0.0677244,-0.163535 0,-0.0616378 -0.0241417,-0.119957 -0.0677244,-0.163535z"/>
   <g>
    <polygon id="_304767664" class="fil1" points="1.8062,2.16824 1.8062,1.88637 2.26447,1.88637 2.26447,2.16824 "/>
    <polygon id="_304767496" class="fil1" points="2.26447,3.95118 2.26447,4.23304 1.8062,4.23304 1.8062,3.95118 "/>
   </g>
   <g>
    <polygon id="_304767880" class="fil1" points="1.14387,3.28884 0.862,3.28884 0.862,2.83057 1.14387,2.83057 "/>
    <polygon id="_304767928" class="fil1" points="2.9268,2.83057 3.20867,2.83057 3.20867,3.28884 2.9268,3.28884 "/>
   </g>
   <g>
    <polygon id="_304767304" class="fil1" points="1.24294,2.59137 1.04364,2.39206 1.36769,2.06801 1.56699,2.26732 "/>
    <polygon id="_304767280" class="fil1" points="2.82772,3.52805 3.02703,3.72735 2.70298,4.0514 2.50367,3.85209 "/>
   </g>
   <g>
    <polygon id="_304767352" class="fil1" points="2.82772,2.59137 3.02703,2.39206 2.70298,2.06801 2.50368,2.26732 "/>
    <polygon id="_304766680" class="fil1" points="1.24295,3.52805 1.04364,3.72735 1.36769,4.0514 1.567,3.85209 "/>
   </g>
   <path id="_304767328" class="fil1" d="M3.9085 1.50658c0.0846378,0 0.161276,0.034315 0.216756,0.0897913 0.0554764,0.0554803 0.0897913,0.132118 0.0897913,0.21676 0,0.0846378 -0.034315,0.161276 -0.0897913,0.216756 -0.0554803,0.0554764 -0.132118,0.0897913 -0.216756,0.0897913 -0.0846378,0 -0.16128,-0.034315 -0.21676,-0.0897913 -0.0554764,-0.0554803 -0.0897913,-0.132118 -0.0897913,-0.216756 0,-0.0846417 0.034315,-0.16128 0.0897913,-0.21676 0.0554803,-0.0554764 0.132122,-0.0897913 0.21676,-0.0897913zm0.104933 0.201614c-0.0268465,-0.0268465 -0.0639488,-0.0434567 -0.104933,-0.0434567 -0.0409843,0 -0.0780945,0.0166102 -0.104941,0.0434567 -0.0268425,0.0268465 -0.0434528,0.0639528 -0.0434528,0.104937 0,0.0409843 0.0166102,0.0780866 0.0434528,0.104937 0.0268465,0.0268425 0.0639567,0.0434528 0.104941,0.0434528 0.0409843,0 0.0780866,-0.0166102 0.104933,-0.0434528 0.0268465,-0.0268465 0.0434567,-0.0639528 0.0434567,-0.104937 0,-0.0409882 -0.0166102,-0.0780906 -0.0434567,-0.104937z"/>
   <polygon id="_304766632" class="fil1" points="3.80183,1.08375 3.80183,0.853134 4.01517,0.853134 4.01517,1.08375 "/>
   <polygon id="_304767040" class="fil1" points="3.19335,1.93404 2.96274,1.93404 2.96274,1.7207 3.19335,1.7207 "/>
   <polygon id="_304767088" class="fil1" points="4.04364,2.54251 4.04364,2.77313 3.8303,2.77313 3.8303,2.54251 "/>
   <polygon id="_304765888" class="fil1" points="4.65211,1.69223 4.88273,1.69223 4.88273,1.90557 4.65211,1.90557 "/>
   <polygon id="_304766512" class="fil1" points="3.3215,1.38287 3.15843,1.2198 3.30926,1.06896 3.47233,1.23203 "/>
   <polygon id="_304766392" class="fil1" points="3.49247,2.41437 3.3294,2.57744 3.17856,2.4266 3.34163,2.26353 "/>
   <polygon id="_304766368" class="fil1" points="4.52397,2.2434 4.68704,2.40647 4.5362,2.5573 4.37313,2.39423 "/>
   <polygon id="_304766152" class="fil1" points="4.353,1.2119 4.51607,1.04883 4.66691,1.19966 4.50383,1.36273 "/>
  </g>
 </g>
</svg>
